<!-- <?xml version="1.0" encoding="utf-8"?> -->
<!-- Generator: Adobe Illustrator 17.0.0, SVG Export Plug-In . SVG Version: 6.00 Build 0)  -->
<!-- <!DOCTYPE svg PUBLIC "-//W3C//DTD SVG 1.1//EN" "http://www.w3.org/Graphics/SVG/1.1/DTD/svg11.dtd"> -->
<svg version="1.1" id="Layer_1" xmlns="http://www.w3.org/2000/svg" xmlns:xlink="http://www.w3.org/1999/xlink" x="0px" y="0px"
	 width="128px" height="128px" viewBox="0 0 128 128" enable-background="new 0 0 128 128" xml:space="preserve">
<g>
	<g>
		<path fill="#3BBDAA" d="M84.846,86.28c-0.047,0-0.079,0-0.097-0.001l-54.6,0.001v-4.704H84.78c0.115,0,10.382,0.016,17.145-6.687
			c4.056-4.018,6.112-9.708,6.112-16.911c0-10.657-2.652-18.488-7.885-23.277c-6.298-5.764-14.395-5.118-14.471-5.111l-0.216,0.01
			H51.173c-0.13,0-0.235,0.105-0.235,0.235v48.091h-4.704V29.834c0-2.723,2.215-4.938,4.939-4.938h34.194
			c1.247-0.091,10.419-0.517,17.898,6.279c6.287,5.713,9.475,14.73,9.475,26.803c0,8.525-2.537,15.351-7.54,20.287
			C97.304,86.057,86.089,86.28,84.846,86.28z"/>
	</g>
	<g>
		<path fill="#3BBDAA" d="M61.559,124.911H51.177c-2.239,0-4.061-1.821-4.061-4.061V89.484h2.94v31.367
			c0,0.619,0.503,1.121,1.121,1.121h10.382c0.619,0,1.121-0.503,1.121-1.121V89.484h2.94v31.367
			C65.62,123.09,63.798,124.911,61.559,124.911z"/>
	</g>
	<g>
		<rect x="62.68" y="13.779" fill="#3BBDAA" width="2.94" height="64.146"/>
	</g>
	<path fill="#3BBDAA" d="M25.983,90.017c-3.242,0-5.879-2.637-5.879-5.879c0-3.243,2.637-5.88,5.879-5.88s5.879,2.637,5.879,5.88
		C31.862,87.38,29.225,90.017,25.983,90.017z M25.983,80.609c-1.945,0-3.528,1.583-3.528,3.529c0,1.945,1.583,3.528,3.528,3.528
		s3.528-1.583,3.528-3.528C29.511,82.192,27.928,80.609,25.983,80.609z"/>
	<path fill="#3BBDAA" d="M64.2,14.758c-3.243,0-5.88-2.637-5.88-5.88C58.321,5.637,60.958,3,64.2,3c3.242,0,5.879,2.637,5.879,5.879
		C70.08,12.121,67.442,14.758,64.2,14.758z M64.2,5.351c-1.946,0-3.529,1.583-3.529,3.528c0,1.946,1.583,3.529,3.529,3.529
		c1.945,0,3.528-1.583,3.528-3.529C67.728,6.934,66.146,5.351,64.2,5.351z"/>
</g>
</svg>
